<?xml version="1.0" encoding="UTF-8"?>
<svg xmlns="http://www.w3.org/2000/svg" xmlns:xlink="http://www.w3.org/1999/xlink" width="341px" height="512px" viewBox="0 0 341 512" version="1.1">
<g id="surface1">
<path style=" stroke:none;fill-rule:nonzero;fill:rgb(100%,100%,100%);fill-opacity:1;" d="M 278.820312 86.433594 C 278.558594 84.765625 278.296875 83.066406 278.046875 81.335938 C 278.253906 82.167969 278.515625 83.964844 278.820312 86.433594 Z M 278.820312 86.433594 "/>
<path style=" stroke:none;fill-rule:nonzero;fill:rgb(0%,0%,0%);fill-opacity:1;" d="M 278.046875 81.335938 C 278.296875 83.066406 278.558594 84.765625 278.820312 86.433594 C 278.515625 83.964844 278.253906 82.152344 278.046875 81.335938 Z M 278.046875 81.335938 "/>
<path style=" stroke:none;fill-rule:nonzero;fill:rgb(100%,100%,100%);fill-opacity:1;" d="M 279.109375 88.292969 C 279.109375 88.292969 279.066406 88.292969 279.039062 88.292969 C 278.964844 87.683594 278.90625 87.085938 278.835938 86.523438 C 278.921875 87.132812 279.007812 87.710938 279.109375 88.308594 Z M 279.109375 88.292969 "/>
<path style=" stroke:none;fill-rule:nonzero;fill:rgb(0%,0%,0%);fill-opacity:1;" d="M 278.835938 86.507812 C 278.90625 87.074219 278.964844 87.652344 279.039062 88.277344 C 279.066406 88.277344 279.082031 88.277344 279.109375 88.277344 C 279.007812 87.683594 278.921875 87.101562 278.835938 86.492188 Z M 278.835938 86.507812 "/>
<path style=" stroke:none;fill-rule:nonzero;fill:rgb(100%,100%,100%);fill-opacity:1;" d="M 191.574219 511.304688 C 187.277344 511.304688 183.691406 510.386719 181.945312 509.835938 C 165.113281 504.59375 159.722656 485.632812 157.703125 478.503906 C 146.082031 437.445312 165.722656 391.648438 166.546875 389.714844 C 167.070312 388.523438 167.609375 387.320312 168.160156 386.117188 L 168.453125 385.492188 L 165.488281 383.878906 C 163.875 383.007812 162.363281 382.183594 160.867188 381.355469 L 159.300781 380.585938 L 159.054688 380.351562 L 158.921875 380.277344 L 158.804688 380.191406 C 156.308594 378.769531 152.867188 376.78125 148.40625 373.890625 C 129.464844 361.636719 112.847656 346.796875 111 345.140625 C 109.289062 343.601562 105.714844 340.363281 105.714844 340.363281 L 105.320312 340.496094 C 102.78125 341.308594 100.253906 342.050781 97.796875 342.71875 C 93.046875 343.996094 90.199219 344.574219 76.039062 347.101562 C 60.933594 349.800781 55.484375 350.734375 51.128906 350.734375 C 47.972656 350.734375 45.300781 350.222656 42.425781 349.078125 C 41.757812 348.816406 41.046875 348.507812 40.304688 348.132812 C 27.984375 343.3125 21.128906 331.625 15.074219 321.316406 C 4.339844 303.035156 -4.941406 287.253906 5.109375 274.332031 C 8.1875 270.367188 14.257812 265.648438 25.632812 265.648438 C 34.871094 265.648438 45.460938 268.8125 54.714844 274.332031 L 55.109375 274.5625 L 55.484375 274.300781 C 63.632812 268.796875 72.914062 263.007812 83.648438 256.3125 L 84.128906 256.007812 C 88.660156 253.175781 98.175781 248.121094 110.898438 246.105469 L 112.542969 245.84375 L 109.636719 243.5625 L 109.246094 243.707031 C 102.632812 246.308594 95.707031 247.613281 88.660156 247.613281 C 84.15625 247.613281 79.566406 247.078125 75.050781 246.003906 C 70.5625 244.914062 56.863281 241.632812 54.539062 229.101562 C 53.625 224.066406 54.875 219.113281 58.285156 214.394531 C 71.476562 196.160156 78.84375 188.722656 79.625 187.925781 C 88.703125 178.90625 91.859375 175.960938 97.679688 173.855469 C 101.722656 172.390625 106.003906 171.648438 110.449219 171.648438 C 112.019531 171.648438 113.617188 171.738281 115.183594 171.925781 L 116.363281 172.070312 L 115.953125 170.96875 C 115.722656 170.328125 115.503906 169.6875 115.300781 169.035156 C 112.703125 160.773438 113.414062 152.089844 114.707031 136.339844 L 114.75 135.800781 C 116.1875 118.421875 116.914062 109.707031 118.484375 103.496094 L 118.527344 103.304688 L 118.46875 103.117188 C 116 94.679688 114.269531 85.96875 113.355469 77.214844 C 112.121094 65.4375 112.339844 53.535156 113.996094 41.816406 L 116.722656 22.476562 L 134.039062 31.519531 C 143.425781 36.429688 152.820312 41.320312 162.207031 46.214844 L 177.601562 54.246094 L 177.863281 54.1875 C 185.433594 52.34375 193.886719 51.527344 205.230469 51.527344 C 210.664062 51.527344 217.15625 51.71875 225.085938 52.125 L 225.480469 52.125 C 225.480469 52.125 225.710938 51.832031 225.710938 51.832031 C 230.347656 45.519531 235.546875 39.566406 241.140625 34.136719 C 249.460938 26.046875 258.773438 19.019531 268.796875 13.226562 L 289.496094 1.292969 L 289.496094 25.175781 C 289.496094 34.035156 289.816406 42.921875 290.457031 51.601562 C 290.992188 58.773438 291.734375 65.917969 292.648438 72.828125 L 292.648438 72.960938 C 292.648438 72.960938 293.113281 73.832031 293.113281 73.832031 L 293.113281 76.167969 C 293.113281 76.167969 293.449219 78.40625 293.449219 78.40625 L 293.535156 78.59375 L 293.765625 80.496094 L 293.898438 81.324219 L 293.898438 81.441406 C 293.898438 81.441406 294.027344 82.671875 294.027344 82.671875 C 294.84375 89.832031 295.84375 100.71875 296.65625 109.476562 L 296.699219 109.972656 C 297.179688 115.183594 297.730469 121.109375 297.90625 122.5 C 298.878906 127.960938 301.464844 142.363281 304.996094 155.96875 C 305.171875 156.648438 305.359375 157.519531 305.589844 158.539062 C 306.183594 161.28125 306.984375 165.042969 308.960938 169.253906 C 309.703125 170.851562 310.28125 171.839844 311.691406 174.234375 L 311.792969 174.410156 C 319.082031 186.894531 325.867188 198.773438 327.769531 202.113281 L 328.28125 202.996094 L 328.84375 204.332031 L 329.007812 204.664062 C 335.152344 218.792969 338.753906 233.734375 339.710938 249.054688 C 340.464844 261.074219 341.601562 279.226562 333.160156 299.160156 C 325.695312 316.785156 310.9375 329.390625 284.148438 352.257812 C 276.117188 359.109375 270.320312 364.046875 264.207031 367.472656 L 264.121094 367.53125 L 264.046875 367.605469 C 262.113281 369.5625 260.054688 370.984375 257.871094 372.496094 C 256.929688 373.148438 255.824219 373.90625 254.515625 374.863281 C 247.632812 379.859375 242.054688 385.679688 230.914062 397.296875 L 230.289062 397.933594 C 220.542969 408.082031 216.125 412.804688 213.351562 418.089844 C 212.175781 420.308594 209.296875 426.378906 207.859375 434.625 C 205.363281 448.898438 208.617188 460.773438 211.492188 471.257812 C 214.542969 482.378906 218.332031 496.203125 207.46875 505.699219 C 203.269531 509.375 197.765625 511.320312 191.5625 511.320312 Z M 191.574219 511.304688 "/>
<path style=" stroke:none;fill-rule:nonzero;fill:rgb(0%,0%,0%);fill-opacity:1;" d="M 288.78125 2.523438 L 288.78125 25.164062 C 288.78125 34.035156 289.101562 42.949219 289.742188 51.628906 C 290.28125 58.820312 291.019531 65.976562 291.9375 72.902344 L 291.964844 73.148438 L 292.082031 73.367188 L 292.386719 73.976562 L 292.386719 76.140625 C 292.386719 76.140625 292.386719 76.242188 292.386719 76.242188 L 292.386719 76.34375 C 292.503906 77.023438 292.605469 77.707031 292.707031 78.378906 L 292.734375 78.578125 L 292.824219 78.765625 L 293.054688 80.609375 L 293.15625 81.308594 L 293.15625 81.597656 C 293.214844 81.964844 293.257812 82.355469 293.300781 82.746094 C 294.117188 89.890625 295.117188 100.78125 295.933594 109.519531 L 295.933594 109.605469 C 295.933594 109.605469 295.972656 110.011719 295.972656 110.011719 C 296.484375 115.488281 297.007812 121.164062 297.195312 122.570312 L 297.195312 122.617188 C 297.195312 122.617188 297.195312 122.660156 297.195312 122.660156 C 298.167969 128.089844 300.753906 142.523438 304.300781 156.144531 C 304.457031 156.78125 304.648438 157.59375 304.878906 158.695312 C 305.476562 161.472656 306.300781 165.273438 308.308594 169.558594 C 309.0625 171.183594 309.660156 172.1875 311.066406 174.59375 L 311.167969 174.769531 C 318.460938 187.257812 325.246094 199.132812 327.144531 202.472656 L 327.613281 203.289062 L 328.191406 204.652344 L 328.324219 204.957031 C 334.4375 219.027344 338.027344 233.878906 338.988281 249.109375 C 339.742188 261.046875 340.875 279.09375 332.492188 298.882812 C 325.097656 316.351562 310.382812 328.910156 283.671875 351.71875 C 275.679688 358.527344 269.914062 363.46875 263.855469 366.847656 L 263.683594 366.949219 L 263.539062 367.09375 C 261.664062 369 259.617188 370.40625 257.453125 371.902344 C 256.550781 372.523438 255.417969 373.3125 254.09375 374.269531 C 247.167969 379.292969 241.5625 385.144531 230.359375 396.816406 L 229.765625 397.429688 C 219.976562 407.632812 215.527344 412.367188 212.710938 417.753906 C 211.519531 420.003906 208.601562 426.160156 207.148438 434.507812 C 204.621094 448.941406 207.902344 460.90625 210.792969 471.460938 C 213.785156 482.378906 217.507812 495.972656 206.988281 505.164062 C 202.921875 508.71875 197.589844 510.605469 191.5625 510.605469 C 187.363281 510.605469 183.863281 509.707031 182.132812 509.167969 C 165.675781 504.042969 160.363281 485.359375 158.371094 478.332031 C 146.824219 437.515625 166.359375 391.9375 167.1875 390.019531 C 167.710938 388.832031 168.234375 387.640625 168.800781 386.433594 L 169.367188 385.203125 L 168.175781 384.546875 L 165.808594 383.257812 C 164.195312 382.386719 162.683594 381.558594 161.132812 380.699219 L 159.691406 379.988281 L 159.589844 379.902344 L 159.460938 379.769531 L 159.34375 379.699219 L 159.300781 379.652344 L 159.125 379.550781 C 156.640625 378.144531 153.214844 376.15625 148.769531 373.28125 C 129.886719 361.054688 113.296875 346.246094 111.464844 344.605469 C 109.753906 343.066406 108.097656 341.570312 106.484375 340.121094 L 105.859375 339.550781 L 105.0625 339.800781 C 102.53125 340.609375 100.007812 341.351562 97.578125 342.003906 C 92.84375 343.285156 90.011719 343.847656 75.878906 346.378906 C 60.816406 349.0625 55.382812 349.992188 51.097656 349.992188 C 48.046875 349.992188 45.449219 349.5 42.660156 348.378906 C 42.035156 348.132812 41.320312 347.828125 40.609375 347.464844 L 40.496094 347.40625 C 28.46875 342.703125 21.667969 331.132812 15.667969 320.910156 C 5.066406 302.859375 -4.085938 287.265625 5.644531 274.738281 C 8.625 270.90625 14.507812 266.332031 25.589844 266.332031 C 34.699219 266.332031 45.15625 269.453125 54.308594 274.914062 L 55.109375 275.390625 L 55.878906 274.867188 C 64.027344 269.367188 73.277344 263.585938 84.027344 256.890625 L 84.492188 256.601562 C 88.980469 253.800781 98.394531 248.804688 111 246.800781 L 114.285156 246.277344 L 111.667969 244.230469 C 111.246094 243.898438 110.828125 243.5625 110.40625 243.230469 L 109.753906 242.707031 L 108.96875 243.011719 C 102.445312 245.566406 95.605469 246.875 88.648438 246.875 C 84.1875 246.875 79.667969 246.339844 75.210938 245.277344 C 70.824219 244.21875 57.488281 241.007812 55.238281 228.957031 C 54.351562 224.121094 55.570312 219.359375 58.855469 214.800781 C 72 196.609375 79.335938 189.203125 80.121094 188.417969 C 89.109375 179.492188 92.234375 176.570312 97.914062 174.507812 C 101.867188 173.070312 106.078125 172.347656 110.4375 172.347656 C 111.976562 172.347656 113.546875 172.433594 115.097656 172.621094 L 117.4375 172.898438 L 116.621094 170.675781 C 116.390625 170.050781 116.171875 169.414062 115.96875 168.773438 C 113.414062 160.640625 114.125 152.019531 115.402344 136.351562 L 115.445312 135.785156 C 116.839844 119.015625 117.613281 109.78125 119.152344 103.625 L 119.253906 103.25 L 119.136719 102.871094 C 116.683594 94.480469 114.96875 85.808594 114.050781 77.097656 C 112.832031 65.382812 113.035156 53.535156 114.691406 41.886719 L 117.277344 23.566406 L 133.691406 32.132812 C 143.078125 37.039062 152.472656 41.933594 161.855469 46.824219 L 177.007812 54.722656 L 177.488281 54.96875 L 178.023438 54.839844 C 185.535156 53.011719 193.929688 52.199219 205.214844 52.199219 C 210.636719 52.199219 217.113281 52.386719 225.03125 52.777344 L 225.816406 52.820312 L 226.277344 52.199219 C 230.898438 45.925781 236.054688 40 241.632812 34.585938 C 249.910156 26.539062 259.179688 19.542969 269.160156 13.792969 L 288.769531 2.484375 M 290.238281 0.015625 L 268.449219 12.585938 C 258.367188 18.394531 249.011719 25.46875 240.644531 33.597656 C 234.996094 39.070312 229.808594 45.039062 225.132812 51.382812 C 217.097656 50.976562 210.691406 50.789062 205.246094 50.789062 C 193.988281 50.789062 185.375 51.601562 177.703125 53.476562 L 162.554688 45.574219 C 153.15625 40.683594 143.773438 35.789062 134.390625 30.882812 L 116.160156 21.359375 L 113.28125 41.714844 C 111.628906 53.492188 111.410156 65.453125 112.640625 77.289062 C 113.574219 86.101562 115.289062 94.839844 117.769531 103.320312 C 116.1875 109.589844 115.445312 118.566406 114.023438 135.742188 L 113.980469 136.28125 C 112.671875 152.136719 111.960938 160.859375 114.605469 169.253906 C 114.808594 169.921875 115.042969 170.574219 115.273438 171.214844 C 113.789062 171.039062 112.164062 170.921875 110.449219 170.921875 C 105.933594 170.921875 101.558594 171.675781 97.4375 173.171875 C 91.476562 175.335938 88.285156 178.328125 79.117188 187.417969 C 78.320312 188.199219 70.925781 195.664062 57.691406 213.972656 C 54.164062 218.867188 52.855469 223.976562 53.828125 229.234375 C 56.238281 242.214844 70.199219 245.582031 74.890625 246.714844 C 79.464844 247.804688 84.101562 248.355469 88.660156 248.355469 C 96.925781 248.355469 104 246.554688 109.503906 244.394531 C 109.925781 244.726562 110.347656 245.058594 110.769531 245.394531 C 97.972656 247.425781 88.402344 252.480469 83.722656 255.398438 L 83.257812 255.6875 C 72.726562 262.265625 63.226562 268.175781 55.0625 273.707031 C 45.925781 268.261719 35.105469 264.921875 25.605469 264.921875 C 13.941406 264.921875 7.691406 269.800781 4.515625 273.878906 C -5.832031 287.179688 3.539062 303.136719 14.433594 321.675781 C 20.5625 332.117188 27.492188 343.894531 39.972656 348.785156 C 40.726562 349.148438 41.46875 349.484375 42.136719 349.746094 C 45.097656 350.921875 47.855469 351.460938 51.097656 351.460938 C 55.496094 351.460938 60.960938 350.527344 76.125 347.8125 C 90.300781 345.289062 93.148438 344.707031 97.957031 343.414062 C 100.429688 342.746094 103.015625 341.976562 105.511719 341.179688 C 107.125 342.628906 108.777344 344.125 110.492188 345.664062 C 112.339844 347.320312 129.027344 362.203125 147.984375 374.488281 C 152.097656 377.144531 155.4375 379.117188 158.414062 380.800781 L 158.457031 380.84375 L 158.601562 380.917969 L 158.867188 381.164062 L 160.507812 381.964844 C 162.003906 382.789062 163.527344 383.617188 165.140625 384.488281 C 165.140625 384.488281 167.363281 385.695312 167.507812 385.78125 C 166.957031 387 166.402344 388.207031 165.894531 389.398438 C 165.050781 391.34375 145.328125 437.382812 157.003906 478.679688 C 159.070312 485.910156 164.515625 505.148438 181.730469 510.503906 C 183.527344 511.070312 187.1875 512 191.574219 512 C 197.96875 512 203.632812 509.996094 207.964844 506.207031 C 219.175781 496.40625 215.3125 482.335938 212.203125 471.027344 C 209.359375 460.617188 206.117188 448.828125 208.585938 434.710938 C 210.011719 426.582031 212.84375 420.585938 214.003906 418.378906 C 216.734375 413.179688 221.121094 408.492188 230.828125 398.386719 L 231.421875 397.777344 C 242.550781 386.175781 248.128906 380.351562 254.953125 375.402344 C 256.261719 374.457031 257.351562 373.699219 258.277344 373.046875 C 260.472656 371.523438 262.59375 370.074219 264.570312 368.066406 C 270.757812 364.613281 276.511719 359.707031 284.628906 352.78125 C 311.503906 329.839844 326.304688 317.207031 333.828125 299.421875 C 342.339844 279.3125 341.191406 261.074219 340.4375 248.980469 C 339.464844 233.589844 335.847656 218.5625 329.660156 204.347656 L 329.515625 204.027344 L 328.90625 202.617188 L 328.394531 201.734375 C 326.492188 198.394531 319.738281 186.546875 312.402344 174.015625 L 312.300781 173.839844 C 310.90625 171.460938 310.339844 170.488281 309.597656 168.921875 C 307.667969 164.78125 306.871094 161.0625 306.285156 158.363281 C 306.070312 157.335938 305.867188 156.464844 305.695312 155.765625 C 302.207031 142.335938 299.621094 127.972656 298.617188 122.386719 C 298.441406 120.960938 297.878906 114.863281 297.367188 109.476562 C 296.554688 100.691406 295.539062 89.757812 294.726562 82.570312 C 294.679688 82.179688 294.640625 81.789062 294.59375 81.425781 L 294.59375 81.195312 L 294.464844 80.394531 L 294.21875 78.378906 L 294.117188 78.171875 C 294.015625 77.503906 293.910156 76.835938 293.808594 76.152344 L 293.808594 73.644531 C 293.808594 73.644531 293.332031 72.726562 293.332031 72.726562 C 292.414062 65.832031 291.675781 58.703125 291.136719 51.527344 C 290.496094 42.875 290.179688 34.003906 290.179688 25.164062 L 290.179688 0.015625 Z M 290.238281 0.015625 "/>
<path style=" stroke:none;fill-rule:nonzero;fill:rgb(0%,0%,0%);fill-opacity:1;" d="M 191.574219 496.78125 C 189.050781 496.78125 186.871094 496.175781 186.277344 495.972656 C 176.933594 493.066406 173.378906 480.550781 171.664062 474.523438 C 161.453125 438.429688 179.679688 395.917969 179.855469 395.496094 C 182.164062 390.195312 184.882812 384.679688 187.929688 379.101562 L 188.773438 377.492188 L 187.886719 377.257812 C 183.863281 376.230469 180.117188 374.953125 176.773438 373.46875 C 176.035156 373.078125 172.402344 371.101562 172.402344 371.101562 C 170.777344 370.21875 169.234375 369.390625 167.726562 368.546875 L 167.59375 368.476562 C 164.398438 366.6875 160.824219 364.625 156.265625 361.679688 C 138.296875 350.050781 122.449219 335.910156 120.691406 334.324219 C 116.636719 330.679688 112.859375 327.269531 109.347656 324.074219 L 109.011719 323.769531 L 108.589844 323.929688 C 104.464844 325.527344 98.988281 327.3125 93.949219 328.675781 C 89.734375 329.808594 87.046875 330.347656 73.4375 332.773438 C 59.59375 335.242188 54.074219 336.167969 51.082031 336.167969 C 49.617188 336.167969 48.757812 335.9375 47.769531 335.542969 C 47.234375 335.34375 46.695312 335.09375 46.15625 334.804688 C 38.167969 331.988281 33.011719 323.21875 27.550781 313.925781 C 19.140625 299.609375 12.53125 288.34375 16.527344 283.203125 C 18.066406 281.210938 21.289062 280.125 25.578125 280.125 C 35.03125 280.125 46.871094 285.03125 54.367188 292.058594 L 54.800781 292.480469 L 55.28125 292.117188 C 64.632812 285.21875 76.980469 277.511719 91.289062 268.578125 L 91.753906 268.292969 C 95.632812 265.863281 103.796875 261.582031 114.777344 260.175781 C 117.683594 259.808594 120.3125 259.492188 122.988281 259.492188 C 127.199219 259.492188 130.539062 260.261719 133.472656 261.933594 L 133.589844 262.003906 L 133.722656 262.003906 C 140.359375 262.976562 146.851562 264.964844 153.578125 268.117188 L 153.984375 268.304688 L 154.332031 268.027344 C 156.949219 265.953125 160.636719 262.351562 163.324219 257.039062 C 164.660156 254.410156 166.492188 250.808594 166.984375 247.265625 L 167.144531 246.105469 L 166.039062 246.46875 C 162.117188 247.761719 157.617188 248.457031 152.996094 248.457031 C 148.378906 248.457031 143.613281 247.746094 139.589844 246.410156 C 135.117188 244.929688 131.789062 242.433594 124.714844 236.929688 C 120.601562 233.734375 115.953125 230.121094 111.800781 226.605469 L 111.394531 226.257812 L 110.945312 226.546875 C 107.183594 228.972656 99.28125 233.050781 88.585938 233.050781 C 85.203125 233.050781 81.761719 232.644531 78.332031 231.832031 C 75.835938 231.238281 69.355469 229.667969 68.746094 226.402344 C 68.484375 224.949219 69.503906 223.527344 69.996094 222.84375 C 82.707031 205.261719 89.707031 198.277344 89.78125 198.207031 C 98.640625 189.40625 100.035156 188.390625 102.578125 187.460938 C 105.015625 186.574219 107.632812 186.125 110.375 186.125 C 114.660156 186.125 117.929688 187.226562 118.539062 187.460938 L 119.804688 187.925781 L 119.90625 187.925781 C 128.449219 188.578125 159.023438 199.746094 162.324219 201.109375 L 163.003906 199.832031 C 159.269531 197.335938 155.625 194.589844 152.167969 191.699219 L 150.746094 190.507812 C 141.332031 182.65625 132.429688 175.234375 129.085938 164.621094 C 127.417969 159.308594 127.878906 152.457031 129.117188 137.484375 L 129.160156 136.945312 C 130.683594 118.535156 131.453125 109.289062 133.183594 104.789062 L 133.285156 104.511719 C 133.386719 104.234375 133.503906 103.972656 133.621094 103.699219 L 133.734375 103.4375 L 133.648438 103.175781 C 130.714844 94.289062 128.722656 85.023438 127.738281 75.660156 C 126.660156 65.410156 126.804688 55.042969 128.171875 44.835938 C 137.265625 49.582031 146.371094 54.332031 155.464844 59.078125 L 176.003906 69.792969 L 176.308594 69.679688 L 176.644531 69.5625 C 184.167969 67.066406 192.710938 66.003906 205.175781 66.003906 C 211.550781 66.003906 219.378906 66.28125 229.835938 66.875 L 230.5625 66.921875 C 231.160156 66.949219 231.753906 66.992188 232.308594 67.035156 L 232.742188 67.078125 L 232.976562 66.71875 C 238.191406 58.65625 244.304688 51.179688 251.175781 44.515625 C 258.339844 37.5625 266.3125 31.476562 274.898438 26.410156 C 274.925781 35.195312 275.257812 44.007812 275.898438 52.632812 C 276.523438 60.980469 277.410156 69.257812 278.53125 77.230469 L 278.53125 77.34375 C 278.53125 77.34375 278.558594 77.375 278.558594 77.375 C 278.804688 79.132812 279.054688 80.785156 279.3125 82.398438 C 279.3125 82.398438 279.457031 83.601562 279.53125 84.214844 C 280.332031 91.296875 281.347656 102.128906 282.144531 110.855469 C 282.816406 118.101562 283.351562 123.824219 283.523438 124.835938 C 284.527344 130.472656 287.214844 145.414062 290.890625 159.566406 C 291.035156 160.105469 291.179688 160.773438 291.339844 161.558594 C 291.992188 164.59375 293.082031 169.660156 295.742188 175.351562 C 296.773438 177.558594 297.601562 178.96875 299.082031 181.519531 L 299.183594 181.695312 C 306.460938 194.152344 313.203125 205.945312 315.089844 209.269531 L 315.191406 209.445312 L 315.21875 209.527344 C 315.382812 209.910156 315.511719 210.214844 315.613281 210.433594 C 321.074219 223.003906 324.285156 236.289062 325.144531 249.925781 C 325.851562 261.234375 326.828125 276.667969 319.710938 293.46875 C 313.578125 307.941406 300.566406 319.050781 274.652344 341.179688 C 265.136719 349.296875 260.3125 353.316406 254.984375 355.828125 L 254.808594 355.917969 L 254.691406 356.074219 C 253.574219 357.730469 252.136719 358.71875 249.535156 360.515625 C 248.503906 361.230469 247.3125 362.058594 245.890625 363.085938 C 237.972656 368.824219 232.074219 374.980469 220.324219 387.234375 L 219.726562 387.84375 C 209.269531 398.734375 204.085938 404.292969 200.410156 411.320312 C 198.5625 414.835938 195.207031 422.210938 193.480469 432.097656 C 190.414062 449.582031 194.453125 464.304688 197.402344 475.0625 C 199.972656 484.441406 201.832031 491.238281 197.820312 494.734375 C 196.285156 496.085938 194.148438 496.769531 191.472656 496.769531 Z M 191.574219 496.78125 "/>
<path style=" stroke:none;fill-rule:nonzero;fill:rgb(0%,0%,0%);fill-opacity:1;" d="M 274.257812 27.703125 C 274.316406 36.082031 274.652344 44.488281 275.257812 52.703125 C 275.882812 61.085938 276.769531 69.375 277.890625 77.359375 L 277.917969 77.589844 C 278.148438 79.25 278.398438 80.875 278.644531 82.472656 C 278.644531 82.527344 278.644531 82.601562 278.671875 82.6875 C 278.734375 83.210938 278.804688 83.761719 278.863281 84.34375 C 279.660156 91.414062 280.664062 102.246094 281.476562 110.957031 C 282.246094 119.265625 282.699219 124.011719 282.871094 125 C 283.875 130.632812 286.5625 145.585938 290.25 159.769531 C 290.382812 160.292969 290.527344 160.949219 290.703125 161.71875 C 291.355469 164.78125 292.457031 169.894531 295.160156 175.671875 C 296.207031 177.894531 297.019531 179.300781 298.515625 181.855469 L 298.632812 182.058594 C 305.632812 194.039062 312.054688 205.277344 314.496094 209.558594 L 314.582031 209.71875 C 314.769531 210.15625 314.917969 210.5 315.003906 210.691406 C 320.449219 223.207031 323.632812 236.421875 324.488281 249.996094 C 325.199219 261.191406 326.160156 276.539062 319.113281 293.179688 C 313.054688 307.492188 300.085938 318.554688 274.246094 340.625 C 264.773438 348.714844 259.980469 352.707031 254.734375 355.175781 L 254.371094 355.351562 L 254.15625 355.683594 C 253.109375 357.222656 251.800781 358.121094 249.1875 359.921875 C 248.140625 360.648438 246.964844 361.460938 245.527344 362.507812 C 237.550781 368.285156 231.636719 374.457031 219.84375 386.753906 L 219.261719 387.367188 C 208.761719 398.3125 203.546875 403.886719 199.828125 411 C 197.96875 414.558594 194.570312 422.007812 192.828125 431.996094 C 189.730469 449.636719 193.800781 464.464844 196.761719 475.28125 C 199.261719 484.414062 201.078125 491.003906 197.402344 494.214844 C 195.992188 495.449219 194.03125 496.058594 191.535156 496.058594 C 189.035156 496.058594 187.03125 495.460938 186.449219 495.289062 C 177.488281 492.5 174 480.230469 172.332031 474.335938 C 162.207031 438.515625 180.304688 396.222656 180.492188 395.800781 C 182.804688 390.515625 185.507812 385.011719 188.554688 379.453125 L 188.757812 379.058594 L 188.960938 378.667969 L 189.820312 377.039062 L 188.03125 376.578125 C 184.050781 375.558594 180.378906 374.296875 177.078125 372.84375 C 176.308594 372.441406 175.496094 371.988281 174.625 371.523438 L 172.984375 370.625 L 172.605469 370.421875 C 171.050781 369.578125 169.570312 368.78125 168.117188 367.964844 L 168.089844 367.9375 L 167.941406 367.863281 L 167.914062 367.863281 C 164.730469 366.082031 161.171875 364.03125 156.628906 361.085938 C 138.746094 349.511719 122.898438 335.371094 121.140625 333.800781 C 117.089844 330.160156 113.3125 326.746094 109.8125 323.550781 L 109.144531 322.941406 L 108.300781 323.261719 C 104.203125 324.859375 98.757812 326.617188 93.730469 327.980469 C 89.53125 329.113281 86.859375 329.648438 73.277344 332.058594 C 59.476562 334.527344 53.988281 335.460938 51.054688 335.460938 C 49.703125 335.460938 48.933594 335.253906 48.003906 334.890625 C 47.496094 334.6875 46.984375 334.457031 46.476562 334.179688 L 46.375 334.121094 L 46.273438 334.078125 C 38.632812 331.390625 33.550781 322.722656 28.160156 313.5625 L 28.117188 313.503906 C 20.214844 300.042969 13.375 288.414062 17.078125 283.667969 C 18.488281 281.867188 21.496094 280.863281 25.5625 280.863281 C 33.15625 280.863281 45.257812 284.539062 53.855469 292.59375 L 54.742188 293.421875 L 55.714844 292.710938 C 65.042969 285.832031 77.390625 278.136719 91.667969 269.21875 L 92.148438 268.914062 C 95.980469 266.519531 104.027344 262.292969 114.878906 260.898438 C 117.757812 260.539062 120.355469 260.230469 123 260.230469 C 127.082031 260.230469 130.308594 260.972656 133.125 262.585938 L 133.355469 262.714844 L 133.632812 262.757812 C 140.199219 263.703125 146.621094 265.675781 153.289062 268.796875 L 154.097656 269.175781 L 154.796875 268.609375 C 157.472656 266.476562 161.234375 262.804688 163.976562 257.386719 C 165.34375 254.714844 167.203125 251.039062 167.710938 247.382812 L 168.03125 245.058594 L 165.808594 245.800781 C 161.957031 247.078125 157.527344 247.746094 152.996094 247.746094 C 148.464844 247.746094 143.757812 247.046875 139.804688 245.742188 C 135.449219 244.304688 132.164062 241.835938 125.152344 236.378906 C 121.054688 233.195312 116.40625 229.582031 112.265625 226.082031 L 111.4375 225.386719 L 110.539062 225.964844 C 106.847656 228.347656 99.078125 232.355469 88.574219 232.355469 C 85.246094 232.355469 81.863281 231.949219 78.449219 231.136719 C 72.828125 229.785156 69.792969 228.144531 69.457031 226.300781 C 69.238281 225.140625 70.109375 223.949219 70.578125 223.296875 C 83.246094 205.785156 90.214844 198.8125 90.289062 198.742188 C 99.046875 190.042969 100.398438 189.042969 102.824219 188.160156 C 105.179688 187.300781 107.71875 186.867188 110.375 186.867188 C 114.546875 186.867188 117.699219 187.941406 118.28125 188.144531 L 118.804688 188.332031 C 119.019531 188.40625 119.238281 188.492188 119.441406 188.578125 L 119.644531 188.648438 L 119.863281 188.648438 C 128.230469 189.304688 158.035156 200.167969 161.929688 201.734375 L 162.042969 201.820312 L 162.25 201.878906 C 162.351562 201.910156 162.527344 201.964844 162.757812 201.964844 L 163.949219 201.964844 C 163.949219 201.964844 164.179688 200.789062 164.179688 200.789062 C 164.242188 200.527344 164.3125 199.671875 163.324219 199.179688 C 159.648438 196.710938 156.046875 194.011719 152.632812 191.148438 L 151.207031 189.957031 C 141.867188 182.175781 133.050781 174.8125 129.769531 164.402344 C 128.128906 159.21875 128.609375 152.425781 129.828125 137.542969 L 129.871094 136.992188 C 131.398438 118.652344 132.152344 109.449219 133.851562 105.046875 L 133.953125 104.773438 C 134.054688 104.511719 134.15625 104.234375 134.273438 103.972656 L 134.503906 103.46875 L 134.328125 102.929688 C 131.410156 94.085938 129.4375 84.882812 128.464844 75.558594 C 127.429688 65.714844 127.53125 55.753906 128.75 45.925781 C 137.410156 50.441406 146.066406 54.957031 154.722656 59.472656 C 161.609375 63.058594 168.496094 66.644531 175.378906 70.246094 L 175.960938 70.550781 L 176.570312 70.316406 L 176.65625 70.289062 C 176.746094 70.261719 176.820312 70.230469 176.847656 70.230469 C 184.316406 67.746094 192.796875 66.703125 205.175781 66.703125 C 211.535156 66.703125 219.351562 66.976562 229.792969 67.574219 L 230.535156 67.617188 C 231.128906 67.644531 231.699219 67.691406 232.25 67.730469 L 233.121094 67.804688 L 233.601562 67.066406 C 238.773438 59.050781 244.871094 51.617188 251.699219 44.980469 C 258.527344 38.363281 266.082031 32.523438 274.183594 27.628906 M 275.710938 25.164062 C 268.605469 29.257812 259.734375 35.3125 250.753906 44.007812 C 242.707031 51.820312 236.765625 59.644531 232.4375 66.339844 C 231.636719 66.269531 230.8125 66.222656 229.9375 66.179688 C 220.148438 65.628906 212.085938 65.308594 205.230469 65.308594 C 192.695312 65.308594 184.167969 66.355469 176.457031 68.921875 C 176.339844 68.96875 176.238281 68.996094 176.121094 69.039062 C 159.96875 60.601562 143.785156 52.199219 127.648438 43.761719 C 126.472656 52.109375 125.746094 63.070312 127.070312 75.792969 C 128.214844 86.78125 130.597656 96.148438 133.007812 103.453125 C 132.847656 103.816406 132.703125 104.191406 132.558594 104.570312 C 130.769531 109.214844 130.003906 118.640625 128.449219 137.46875 C 127.253906 151.960938 126.691406 159.320312 128.449219 164.882812 C 132.023438 176.238281 141.667969 183.859375 151.761719 192.296875 C 156.105469 195.925781 159.953125 198.65625 162.671875 200.472656 C 162.773438 200.515625 162.832031 200.542969 162.816406 200.542969 C 162.816406 200.542969 162.785156 200.542969 162.742188 200.527344 C 162.714844 200.515625 162.699219 200.5 162.671875 200.484375 C 160.300781 199.511719 128.984375 187.941406 120.023438 187.257812 C 119.644531 187.113281 119.238281 186.96875 118.84375 186.820312 C 118.351562 186.648438 114.980469 185.445312 110.4375 185.445312 C 107.996094 185.445312 105.21875 185.792969 102.390625 186.820312 C 99.671875 187.808594 98.207031 188.929688 89.328125 197.738281 C 89.328125 197.738281 82.371094 204.621094 69.472656 222.46875 C 68.863281 223.308594 67.789062 224.847656 68.109375 226.578125 C 68.804688 230.339844 75.617188 231.949219 78.246094 232.585938 C 81.949219 233.472656 85.4375 233.835938 88.660156 233.835938 C 99.496094 233.835938 107.5 229.742188 111.410156 227.214844 C 115.503906 230.683594 119.964844 234.15625 124.335938 237.550781 C 131.207031 242.898438 134.738281 245.597656 139.429688 247.148438 C 143.464844 248.488281 148.21875 249.226562 153.070312 249.226562 C 157.574219 249.226562 162.160156 248.585938 166.332031 247.210938 C 165.851562 250.621094 164.035156 254.191406 162.742188 256.75 C 160.097656 261.988281 156.5 265.476562 153.957031 267.492188 C 148.4375 264.90625 141.710938 262.457031 133.894531 261.335938 C 130.453125 259.390625 126.734375 258.796875 123.042969 258.796875 C 120.210938 258.796875 117.410156 259.144531 114.75 259.476562 C 102.648438 261.046875 94.019531 266.082031 91.4375 267.707031 C 76.808594 276.84375 64.386719 284.566406 54.917969 291.566406 C 46.695312 283.855469 34.449219 279.441406 25.632812 279.441406 C 21.289062 279.441406 17.773438 280.515625 16.003906 282.796875 C 11.703125 288.328125 18.472656 299.855469 26.972656 314.332031 C 32.882812 324.394531 37.910156 332.683594 45.855469 335.488281 C 46.421875 335.792969 46.972656 336.050781 47.539062 336.269531 C 48.597656 336.691406 49.53125 336.9375 51.113281 336.9375 C 54.203125 336.9375 59.769531 335.996094 73.597656 333.527344 C 87.28125 331.085938 89.953125 330.550781 94.164062 329.417969 C 99.933594 327.847656 105.351562 326.019531 108.878906 324.640625 C 112.394531 327.835938 116.160156 331.25 120.226562 334.890625 C 121.460938 335.996094 137.703125 350.527344 155.886719 362.304688 C 160.171875 365.078125 163.644531 367.09375 167.261719 369.113281 C 167.261719 369.113281 167.289062 369.113281 167.304688 369.140625 C 168.929688 370.042969 170.589844 370.945312 172.34375 371.902344 C 173.867188 372.726562 175.234375 373.484375 176.5 374.152344 C 180.058594 375.734375 183.878906 376.984375 187.710938 377.972656 C 187.582031 378.230469 187.4375 378.496094 187.304688 378.753906 C 184.285156 384.273438 181.539062 389.816406 179.199219 395.203125 C 179.199219 395.203125 160.578125 437.964844 170.964844 474.726562 C 172.808594 481.203125 176.5 493.691406 186.058594 496.667969 C 186.507812 496.8125 188.847656 497.507812 191.574219 497.507812 C 193.871094 497.507812 196.429688 497.015625 198.40625 495.304688 C 207.671875 487.203125 188.570312 464.882812 194.292969 432.246094 C 196.167969 421.5 200.003906 413.878906 201.148438 411.683594 C 204.839844 404.640625 210.054688 399.109375 220.351562 388.382812 C 232.410156 375.808594 238.421875 369.503906 246.414062 363.699219 C 251.511719 359.980469 253.71875 358.949219 255.386719 356.507812 C 260.878906 353.925781 265.847656 349.746094 275.21875 341.757812 C 301.277344 319.515625 314.292969 308.378906 320.476562 293.769531 C 327.667969 276.796875 326.667969 261.015625 325.96875 249.894531 C 324.867188 232.238281 319.972656 218.433594 316.367188 210.140625 C 316.253906 209.910156 316.109375 209.542969 315.917969 209.09375 C 315.875 209.023438 308.292969 195.691406 299.910156 181.347656 C 298.355469 178.691406 297.53125 177.296875 296.496094 175.078125 C 293.199219 168.003906 292.375 162.066406 291.6875 159.421875 C 288.058594 145.429688 285.414062 130.789062 284.339844 124.75 C 283.960938 122.585938 281.808594 97.105469 280.347656 84.183594 C 280.273438 83.574219 280.214844 82.976562 280.140625 82.414062 C 280.140625 82.382812 280.140625 82.355469 280.140625 82.324219 C 279.878906 80.65625 279.617188 78.957031 279.371094 77.230469 C 279.371094 77.230469 279.371094 77.1875 279.371094 77.15625 C 278.28125 69.433594 277.394531 61.242188 276.753906 52.601562 C 276.046875 42.921875 275.753906 33.757812 275.753906 25.175781 Z M 275.710938 25.164062 "/>
<path style=" stroke:none;fill-rule:nonzero;fill:rgb(100%,100%,100%);fill-opacity:1;" d="M 170.28125 155.492188 C 159.460938 155.492188 150.746094 147.007812 150.4375 136.191406 C 150.148438 125.257812 158.804688 116.128906 169.746094 115.820312 C 169.933594 115.820312 170.121094 115.820312 170.308594 115.820312 C 180.941406 115.820312 189.832031 124.476562 190.125 135.117188 C 190.269531 140.402344 188.335938 145.441406 184.691406 149.289062 C 181.046875 153.136719 176.121094 155.34375 170.832031 155.476562 C 170.660156 155.476562 170.472656 155.476562 170.296875 155.476562 Z M 169.539062 123.53125 C 166.242188 123.617188 163.179688 125 160.914062 127.394531 C 158.648438 129.789062 157.441406 132.925781 157.542969 136.222656 C 157.730469 142.960938 163.152344 148.246094 169.890625 148.246094 L 170.222656 148.246094 C 173.535156 148.15625 176.601562 146.777344 178.882812 144.382812 C 181.148438 141.988281 182.351562 138.851562 182.265625 135.539062 C 182.09375 128.800781 176.644531 123.515625 169.890625 123.515625 L 169.539062 123.515625 Z M 169.539062 123.53125 "/>
<path style=" stroke:none;fill-rule:nonzero;fill:rgb(0%,0%,0%);fill-opacity:1;" d="M 170.308594 116.546875 C 180.550781 116.546875 189.121094 124.882812 189.398438 135.132812 C 189.691406 145.675781 181.335938 154.472656 170.804688 154.75 C 170.628906 154.75 170.457031 154.75 170.28125 154.75 C 159.851562 154.75 151.457031 146.585938 151.167969 136.164062 C 151.035156 131.054688 152.894531 126.203125 156.398438 122.5 C 159.910156 118.796875 164.660156 116.679688 169.757812 116.546875 C 169.949219 116.546875 170.121094 116.546875 170.308594 116.546875 M 169.875 148.96875 C 169.992188 148.96875 170.121094 148.96875 170.238281 148.96875 C 173.738281 148.867188 176.992188 147.429688 179.390625 144.890625 C 181.800781 142.347656 183.066406 139.023438 182.976562 135.523438 C 182.789062 128.382812 177.039062 122.789062 169.875 122.789062 C 169.757812 122.789062 169.628906 122.789062 169.511719 122.789062 C 162.308594 122.980469 156.597656 129.019531 156.800781 136.238281 C 156.988281 143.382812 162.742188 148.96875 169.875 148.96875 M 170.308594 115.09375 C 170.121094 115.09375 169.917969 115.09375 169.730469 115.09375 C 158.371094 115.402344 149.410156 124.851562 149.714844 136.207031 C 150.03125 147.359375 159.183594 156.214844 170.28125 156.214844 C 170.472656 156.214844 170.660156 156.214844 170.847656 156.214844 C 182.195312 155.910156 191.15625 146.441406 190.851562 135.101562 C 190.546875 123.953125 181.394531 115.09375 170.308594 115.09375 Z M 169.875 147.519531 C 163.601562 147.519531 158.429688 142.507812 158.253906 136.207031 C 158.078125 129.789062 163.136719 124.433594 169.554688 124.257812 C 169.65625 124.257812 169.773438 124.257812 169.875 124.257812 C 176.167969 124.257812 181.351562 129.265625 181.527344 135.566406 C 181.699219 142 176.628906 147.34375 170.195312 147.519531 C 170.09375 147.519531 169.976562 147.519531 169.875 147.519531 Z M 169.875 147.519531 "/>
<path style=" stroke:none;fill-rule:nonzero;fill:rgb(100%,100%,100%);fill-opacity:1;" d="M 224.695312 244 C 220.414062 244 216.9375 242.664062 214.671875 240.136719 C 208.121094 232.847656 213.058594 217.675781 225.699219 206.324219 C 230.140625 202.328125 235.109375 199.207031 240.035156 197.277344 C 239.03125 198.058594 238.046875 198.886719 237.074219 199.757812 C 223.839844 211.652344 218.84375 227.738281 225.929688 235.621094 C 228.488281 238.46875 232.324219 239.964844 237.042969 239.964844 C 237.828125 239.964844 238.609375 239.917969 239.441406 239.847656 C 234.339844 242.546875 229.214844 244 224.710938 244 Z M 224.695312 244 "/>
<path style=" stroke:none;fill-rule:nonzero;fill:rgb(0%,0%,0%);fill-opacity:1;" d="M 235.53125 200.195312 C 222.792969 212.246094 218.214844 228.160156 225.378906 236.113281 C 227.890625 238.902344 231.550781 240.472656 236.027344 240.671875 C 232.074219 242.375 228.183594 243.273438 224.679688 243.273438 C 220.597656 243.273438 217.316406 242.027344 215.195312 239.644531 C 208.90625 232.660156 213.828125 217.949219 226.175781 206.859375 C 229.128906 204.203125 232.292969 201.949219 235.53125 200.179688 M 244.25 195.1875 C 238.058594 196.695312 231.289062 200.308594 225.1875 205.800781 C 212.25 217.445312 207.277344 233.039062 214.105469 240.632812 C 216.605469 243.40625 220.324219 244.742188 224.679688 244.742188 C 230.257812 244.742188 236.867188 242.5625 243.246094 238.453125 C 241.082031 238.976562 238.992188 239.25 237.027344 239.25 C 232.683594 239.25 228.953125 237.929688 226.453125 235.140625 C 219.625 227.550781 224.59375 211.941406 237.535156 200.308594 C 239.699219 198.363281 241.964844 196.636719 244.25 195.1875 Z M 244.25 195.1875 "/>
<path style=" stroke:none;fill-rule:nonzero;fill:rgb(100%,100%,100%);fill-opacity:1;" d="M 230.828125 315.59375 C 228.066406 311.964844 224.753906 308.582031 221.078125 305.707031 C 213.582031 299.824219 205.144531 296.445312 197.9375 296.445312 C 191.5625 296.445312 186.625 299.042969 184.023438 303.777344 C 182.554688 306.449219 181.902344 309.671875 182.105469 313.273438 C 177.777344 305.113281 176.90625 296.996094 179.898438 291.550781 C 182.222656 287.3125 186.710938 284.972656 192.535156 284.972656 C 199.421875 284.972656 207.527344 288.238281 214.773438 293.933594 C 222.429688 299.929688 228.210938 307.796875 230.828125 315.59375 Z M 230.828125 315.59375 "/>
<path style=" stroke:none;fill-rule:nonzero;fill:rgb(0%,0%,0%);fill-opacity:1;" d="M 192.535156 284.246094 L 192.535156 285.699219 C 199.261719 285.699219 207.191406 288.90625 214.324219 294.5 C 220.324219 299.1875 225.25 305.242188 228.285156 311.414062 C 226.222656 309.148438 223.941406 307.03125 221.515625 305.125 C 213.890625 299.144531 205.289062 295.703125 197.921875 295.703125 C 191.269531 295.703125 186.113281 298.449219 183.382812 303.414062 C 182.296875 305.402344 181.628906 307.683594 181.410156 310.179688 C 178.371094 303.195312 177.980469 296.53125 180.523438 291.898438 C 182.71875 287.890625 186.988281 285.699219 192.519531 285.683594 L 192.519531 284.234375 M 192.535156 284.246094 C 186.652344 284.246094 181.816406 286.539062 179.257812 291.203125 C 175.613281 297.839844 177.472656 307.609375 183.269531 316.710938 C 182.351562 312.007812 182.730469 307.621094 184.664062 304.125 C 187.21875 299.464844 192.058594 297.171875 197.9375 297.171875 C 204.738281 297.171875 212.929688 300.246094 220.628906 306.273438 C 225.523438 310.121094 229.589844 314.664062 232.597656 319.398438 C 230.882812 310.601562 224.59375 300.683594 215.222656 293.351562 C 207.527344 287.3125 199.332031 284.246094 192.535156 284.246094 Z M 192.535156 284.246094 "/>
<path style=" stroke:none;fill-rule:nonzero;fill:rgb(100%,100%,100%);fill-opacity:1;" d="M 233.238281 155.242188 C 222.414062 155.242188 213.699219 146.761719 213.394531 135.945312 C 213.105469 125.011719 221.761719 115.878906 232.699219 115.574219 C 232.890625 115.574219 233.078125 115.574219 233.265625 115.574219 C 243.898438 115.574219 252.789062 124.230469 253.066406 134.871094 C 253.210938 140.15625 251.277344 145.195312 247.632812 149.042969 C 243.984375 152.890625 239.0625 155.097656 233.773438 155.226562 C 233.601562 155.226562 233.414062 155.226562 233.238281 155.226562 Z M 232.480469 123.269531 C 229.183594 123.359375 226.121094 124.734375 223.855469 127.132812 C 221.589844 129.527344 220.382812 132.664062 220.480469 135.960938 C 220.671875 142.695312 226.089844 147.980469 232.828125 147.980469 L 233.179688 147.980469 C 240.003906 147.792969 245.394531 142.101562 245.222656 135.277344 C 245.03125 128.539062 239.597656 123.257812 232.84375 123.257812 L 232.496094 123.257812 Z M 232.480469 123.269531 "/>
<path style=" stroke:none;fill-rule:nonzero;fill:rgb(0%,0%,0%);fill-opacity:1;" d="M 233.265625 116.300781 C 243.507812 116.300781 252.078125 124.632812 252.351562 134.886719 C 252.644531 145.429688 244.292969 154.226562 233.761719 154.5 C 233.585938 154.5 233.414062 154.5 233.238281 154.5 C 222.808594 154.5 214.414062 146.339844 214.121094 135.917969 C 213.992188 130.804688 215.847656 125.957031 219.351562 122.253906 C 222.867188 118.550781 227.617188 116.433594 232.714844 116.300781 C 232.902344 116.300781 233.078125 116.300781 233.265625 116.300781 M 232.828125 148.707031 C 232.945312 148.707031 233.078125 148.707031 233.195312 148.707031 C 236.691406 148.605469 239.949219 147.171875 242.34375 144.628906 C 244.753906 142.089844 246.019531 138.761719 245.933594 135.265625 C 245.746094 128.121094 239.992188 122.53125 232.828125 122.53125 C 232.714844 122.53125 232.582031 122.53125 232.46875 122.53125 C 225.261719 122.71875 219.554688 128.757812 219.757812 135.972656 C 219.945312 143.117188 225.699219 148.707031 232.828125 148.707031 M 233.265625 114.847656 C 233.078125 114.847656 232.875 114.847656 232.683594 114.847656 C 221.324219 115.15625 212.363281 124.605469 212.667969 135.960938 C 212.988281 147.109375 222.140625 155.96875 233.238281 155.96875 C 233.425781 155.96875 233.617188 155.96875 233.800781 155.96875 C 245.148438 155.664062 254.109375 146.199219 253.804688 134.855469 C 253.5 123.707031 244.351562 114.847656 233.265625 114.847656 Z M 232.828125 147.257812 C 226.554688 147.257812 221.386719 142.246094 221.210938 135.945312 C 221.035156 129.527344 226.089844 124.171875 232.507812 123.996094 C 232.613281 123.996094 232.726562 123.996094 232.828125 123.996094 C 239.121094 123.996094 244.304688 129.007812 244.480469 135.308594 C 244.652344 141.738281 239.585938 147.082031 233.148438 147.257812 C 233.046875 147.257812 232.929688 147.257812 232.828125 147.257812 Z M 232.828125 147.257812 "/>
</g>
</svg>
