<svg version="1.0" xmlns="http://www.w3.org/2000/svg" preserveAspectRatio="xMidYMid meet" viewBox="112.28 46.07 239.67 353.93">
<metadata>
Created by potrace 1.10, written by Peter Selinger 2001-2011
</metadata>
<g transform="translate(0.000000,564.000000) scale(0.100000,-0.100000)" fill="#000000" stroke="none" style="--darkreader-inline-fill: var(--darkreader-background-000000, #000000); --darkreader-inline-stroke: none;" data-darkreader-inline-fill="" data-darkreader-inline-stroke="">
<path d="M2384 5165 c-3 -8 -1 -36 4 -62 16 -71 10 -143 -15 -194 -13 -24 -39 -84 -59 -134 -33 -80 -37 -102 -41 -202 l-5 -112 47 -50 c30 -32 45 -56 41 -66 -7 -18 -42 -20 -53 -2 -19 29 -230 190 -295 223 -36 19 -100 18 -228 -2 -164 -26 -200 -46 -200 -111 0 -31 8 -44 47 -81 60 -55 93 -69 204 -83 102 -13 134 -32 144 -82 7 -36 22 -87 39 -132 17 -47 76 -105 133 -131 28 -13 58 -24 66 -24 17 0 27 -21 27 -54 0 -20 -14 -58 -39 -106 -15 -29 -46 -21 -102 28 -83 72 -106 79 -188 59 -79 -19 -207 -42 -311 -56 -71 -9 -77 -9 -115 14 -22 13 -93 76 -157 139 -69 68 -125 116 -137 116 -10 0 -31 -14 -45 -31 -25 -29 -26 -34 -20 -117 4 -48 12 -98 20 -112 7 -14 17 -58 23 -97 13 -88 50 -172 104 -235 39 -46 42 -48 94 -48 30 0 68 -7 85 -16 18 -9 54 -15 92 -15 83 0 242 -24 299 -46 68 -26 322 -262 361 -335 l19 -36 -54 -68 c-29 -38 -56 -71 -60 -74 -17 -14 -69 -95 -69 -107 0 -8 -13 -26 -30 -40 -16 -13 -30 -31 -30 -38 0 -7 -20 -40 -45 -74 -27 -36 -45 -72 -45 -88 0 -14 -6 -34 -13 -42 -16 -19 -50 -128 -43 -139 2 -4 -2 -34 -10 -67 -16 -66 -11 -147 12 -182 8 -12 14 -30 14 -39 0 -30 40 -103 60 -109 10 -3 25 -22 33 -43 23 -57 103 -143 171 -184 33 -21 68 -37 76 -38 21 0 70 64 70 92 0 13 -12 48 -26 78 -24 51 -24 55 -8 67 10 7 28 13 40 13 12 0 27 7 34 15 11 13 4 15 -52 15 -97 0 -102 6 -99 131 2 113 13 136 58 124 12 -3 29 -2 37 1 31 12 15 23 -36 26 -47 3 -53 6 -56 26 -6 37 64 191 103 229 20 19 41 49 49 67 14 34 195 221 277 288 25 20 62 43 83 52 41 17 100 60 158 114 20 19 41 31 46 28 6 -4 14 0 19 8 4 8 28 24 53 37 25 13 51 29 58 36 7 7 19 13 26 13 7 0 39 25 72 56 32 32 82 67 109 80 53 25 98 67 132 124 12 19 36 49 53 65 35 33 89 140 114 224 26 89 19 222 -20 352 -7 26 -19 91 -25 145 -11 107 -26 190 -34 204 -17 28 -42 512 -35 670 8 153 8 155 -22 158 -23 3 -40 -9 -101 -70 -40 -41 -81 -77 -90 -81 -10 -4 -34 0 -53 8 -38 16 -279 45 -408 49 -81 2 -101 8 -254 77 -51 23 -71 24 -78 4z m324 -362 c41 -26 62 -50 62 -73 0 -19 -3 -19 -57 11 -67 35 -116 35 -165 -1 l-28 -21 0 31 c0 49 30 70 100 70 40 0 70 -6 88 -17z m464 -79 c92 -48 70 -226 -34 -280 -61 -32 -169 -2 -199 55 -10 19 -23 39 -29 45 -15 15 -12 73 5 107 16 30 67 67 120 87 36 13 96 7 137 -14z m-656 -71 c-5 -11 -10 -13 -17 -6 -7 7 -7 17 3 32 10 18 14 19 16 6 2 -9 1 -23 -2 -32z m62 -72 c56 -40 59 -55 10 -40 -35 10 -78 46 -78 66 0 20 10 16 68 -26z m212 22 c-1 -16 -50 -54 -82 -64 -51 -14 -55 -11 -24 16 16 14 37 25 46 25 10 0 20 7 24 15 5 15 36 21 36 8z m290 -466 c0 -7 -11 -28 -24 -48 -33 -49 -47 -107 -39 -165 5 -39 15 -58 50 -95 37 -40 41 -48 28 -59 -24 -20 -98 -4 -127 28 -42 45 -51 70 -44 127 8 72 47 155 90 193 38 33 66 41 66 19z m-425 -612 c87 -35 125 -61 125 -86 0 -24 -9 -24 -83 5 -99 38 -175 49 -251 35 -89 -17 -121 -49 -121 -122 1 -29 9 -67 18 -86 35 -70 9 -96 -40 -40 -34 38 -63 112 -63 163 0 70 50 131 128 157 15 5 70 7 122 5 75 -2 109 -9 165 -31z"/>
<path d="M2984 4652 c-45 -36 -38 -92 18 -145 27 -26 35 -29 73 -24 76 11 153 79 115 102 -5 3 -10 15 -10 26 0 10 -9 28 -20 39 -27 27 -144 28 -176 2z"/>
</g>
</svg>